<svg id="b" xmlns="http://www.w3.org/2000/svg" viewBox="0 0 542.9 101.13"><defs><style>.d{fill:#028bd9;}.e{fill:#03bdb2;}.f{fill:#03c3a2;}.g{fill:#037ee0;}.h{fill:#02a9c9;}.i{fill:#02d280;}.j,.k{fill:#eaecef;}.l{fill:#a157b1;}.m{fill:#b54f79;}.n{fill:#af4e80;}.o{fill:#a65090;}.p{fill:#a6509c;}.q{fill:#bd4d68;}.r{fill:#0596d3;}.s{fill:#04c997;}.t{fill:#049ccf;}.u{fill:#04b3c3;}.v{fill:#06a2cc;}.k{font-family:Chainprinter-Regular, Chainprinter;font-size:32px;}</style></defs><g id="c"><path class="n" d="m136.39,8.71c0-2.57-.03-5.14-.02-7.72,0-.31.15-.61.24-.92.66-.02,1.33-.04,1.99-.06,3.48.01,6.96.06,10.44.02.92-.01,1.61.17,2.03,1.01,1.13,2.6,2.23,5.21,3.38,7.81,3.7,8.34,7.39,16.69,11.12,25.02,2.39,5.32,4.84,10.61,7.27,15.92.14.29.27.57.41.86.52,1.28,1.04,2.56,1.55,3.83.07.09.14.18.21.27,0,0-.01-.01-.01-.01.09.08.18.15.27.23-.05.23-.21.51-.13.68,1,2.2,2.04,4.39,3.07,6.58.03.06.13.09.42.26.47-1.15.92-2.27,1.39-3.38.22-.52.53-1,.74-1.52,1.59-3.73,3.16-7.48,4.75-11.21.12-.29.35-.53.53-.8.07-.24.14-.48.21-.72.02-.09.04-.18.06-.27.07-.08.14-.16.22-.24.09-.17.17-.33.26-.5.66.34,1.31.68,1.97,1.01-.67,1.56-1.34,3.12-2.01,4.68-.06.07-.13.15-.19.22-.4,1.14-.83,2.27-1.19,3.42-.06.2.09.54.25.69.11.1.48.02.64-.1.26-.18.44-.47.65-.72,1.65-1.91,3.3-3.82,4.96-5.73.1.17.34.41.29.52-.25.58-.87,1.17-.79,1.67.07.46.87.8,1.35,1.19-.08.14-.14.3-.25.42-2.23,2.54-4.46,5.08-6.69,7.61-2.14,2.44-4.29,4.87-6.44,7.31-.68.78-1.37.75-1.93-.09-.45-.68-.82-1.43-1.16-2.17-1.41-3.11-2.79-6.23-4.18-9.35-.28-.64-.6-1.2-1.65-.78.34,2.04.7,4.11,1.03,6.18.45,2.9.88,5.81,1.31,8.72-.09,1.05-1.11,1.05-1.74,1.5-.19-.83-.37-1.65-.56-2.48.03-.08.02-.16-.02-.23-.33-1.9-.65-3.8-.98-5.71.03-.08.02-.16-.02-.23-.33-1.9-.66-3.81-.99-5.71l-.16-.38c-.38-2.17-.88-4.34-1.12-6.52-.24-2.17-1.44-3.71-2.92-5.12-.95-.91-1.96-1.76-2.94-2.65-2.51-2.29-5.01-4.58-7.51-6.87-.4-.33-.81-.65-1.21-.98l-.78-.18q-.13-1.55-1.73-1.29c-.11-.39-.21-.77-.32-1.16.17-.99.29-2,1.52-2.3.1.07.22.12.31.2,1.88,1.77,3.75,3.55,5.65,5.31,2.05,1.9,4.11,3.79,6.21,5.63.44.39,1.06.57,1.59.85.09-.09.19-.17.28-.26-.13-.54-.19-1.11-.4-1.61-1.38-3.2-2.8-6.39-4.21-9.58-1.88-4.25-3.76-8.49-5.65-12.73-1.77-3.99-3.52-7.98-5.33-11.96-.17-.37-.68-.81-1.05-.82-2.16-.07-4.32-.03-6.48-.02-.92,0-1.44.51-1.38,1.38.06.92.25,1.85.49,2.74.56,2.09,1.18,4.17,1.78,6.25-.66.17-1.33.34-1.99.51-.56-1.42-1.12-2.85-1.68-4.27-.18.03-.37.07-.55.1-.1.9-.21,1.79-.31,2.69-.24.38-.49.77-.73,1.15l-.48-.28c0-.76-.19-1.57.04-2.25.41-1.23-.3-1.87-1.03-2.57Z"/><path class="l" d="m202.53,7.48c.1-.23.2-.46.3-.69.19-.35.38-.69.58-1.04.47-1.06.93-2.13,1.4-3.19.15-.39.31-.78.46-1.17.32-.43.65-.86.97-1.28.33-.03.65-.06.98-.08,3.99,0,7.99,0,11.98,0,.15.04.31.07.46.11.08.15.16.29.24.44.03.16.06.32.09.49-.02.08-.01.15.03.22.04.25.07.51.11.76-.02.66-.04,1.31-.06,1.97.05,1.65.1,3.3.15,4.95,0,.91.01,1.81.02,2.72,0,9.4,0,18.8,0,28.2,0,.16,0,.33,0,.49,0,1.65,0,3.3,0,4.95-.03,3.05-.06,6.1-.09,9.15-.79.08-1.59.16-2.38.25-.02-2.35-.05-4.7-.05-7.04-.01-12.04,0-24.07-.06-36.11,0-.56-.45-1.11-.69-1.66-.4.36-.98.65-1.17,1.1-1.97,4.79-3.9,9.59-5.78,14.41-1.16,2.98-2.22,6.01-3.33,9.02-1.61,0-1.87-1.52-2.74-2.36l.45-7.29c.01-.49.02-.99.04-1.48,0-.5,0-.99-.01-1.49,0-.66,0-1.32,0-1.98.08-.5.17-.99.25-1.49,0-.16,0-.33,0-.49.08-.99.15-1.98.23-2.97,0-.16.01-.33.02-.49,0-.41,0-.83,0-1.24.03-.08.05-.16.05-.24.07-.33.13-.67.2-1,.01-.61.1-1.23,0-1.83-.04-.23-.46-.41-.71-.61-.06.07-.12.13-.18.2-.47,1.07-.93,2.13-1.4,3.2-.22.43-.44.85-.66,1.28-.08.24-.16.49-.24.73-.46,1.06-.93,2.12-1.39,3.18-.25.58-.5,1.15-.75,1.73-.38.8-.76,1.6-1.13,2.41-.76,1.68-1.52,3.36-2.28,5.05-.78-.16-1.56-.33-2.35-.49,0-.2-.09-.43-.02-.59,1.93-4.26,3.87-8.52,5.81-12.77.62-1.37,1.26-2.73,1.88-4.1.25-.61.5-1.22.76-1.83Zm4.44,13.96c0-.19-.04-.01,0,.14.19.58.4,1.16.61,1.73.41-.45.98-.84,1.2-1.37,1.54-3.64,3.04-7.3,4.51-10.98.73-1.83,1.42-3.68,2.03-5.56.44-1.37-.1-2.09-1.51-2.12-1.37-.04-2.74-.02-4.12.01-.8.02-1.44.24-1.51,1.25-.11,1.67-.34,3.33-.46,5-.26,3.84-.49,7.69-.75,11.89Z"/><path class="g" d="m39.55,99.68c-.02-.14-.03-.29-.05-.43,0-5.09.01-10.19.02-15.28.01-6.78.03-13.56.04-20.34.48.11,1.32.13,1.38.36.3,1.08.99,1.07,1.83.88.03.57-.08,1.19.12,1.69.47,1.22.98,1.28,2.85.49.5.84,1,1.68,1.51,2.52-.99.59-1.98,1.18-2.98,1.76-1.66.96-1.89,1.49-1.04,3.17,2.75,5.44,5.53,10.85,8.32,16.27.21.41.56.76.87,1.16,1.2-.77.91-1.88.91-2.85.04-5.1.03-10.2.03-15.3.74.3,1.4,1,2.32.49,0,4.46,0,8.91,0,13.37-.03.02-.08.05-.07.06.01.06.05.11.07.16,0,1.24,0,2.49,0,3.73-.03.02-.08.05-.07.06.02.06.05.11.08.16,0,.59,0,1.17,0,1.76-.03.02-.08.05-.07.06.02.06.05.11.07.16,0,.26,0,.51,0,.77-.03.02-.07.05-.07.06.01.05.05.11.07.16-.04,1.58-.08,3.15-.12,4.73-.25.46-.5.92-.75,1.39-.19.04-.38.08-.57.12-.58,0-1.16,0-1.75,0-2.58-.01-5.16-.02-7.74-.04-1.49-.02-2.99-.07-4.48-.1-.18-.21-.37-.43-.55-.64-.06-.19-.12-.37-.18-.56Zm2.25-16.64c0,4.28,0,8.57-.02,12.85,0,.86.05,1.67,1.04,2.02.09.02.18.03.27.05,2.16,0,4.33-.02,6.49-.02.13-.03.26-.05.39-.08,1.46-.48,1.69-1.15.83-2.85-2-4-4.03-7.99-6.11-11.94-.3-.57-.97-1.22-1.54-1.29-.39-.05-.9.83-1.36,1.29-.03,0-.05,0-.08,0l.08-.03Z"/><path class="v" d="m78.21,55.18c.27.51.54,1.02.8,1.53.06.1.11.21.17.31.51,1.21,1.03,2.42,1.54,3.63.21.58.42,1.16.76,2.09.48-.76.75-1.18,1.01-1.6.19-.04.46-.02.57-.14.79-.83,1.42-.99,2.01.24.13.26.76.28,1.16.41-1.14,1.39-2.27,2.79-3.41,4.17-.95,1.16-2.21,1-2.82-.39-1.58-3.6-3.14-7.21-4.66-10.83-.33-.77-.69-1.3-1.62-1.11-.33-.27-.86-.48-.95-.82-.34-1.22-.98-.94-1.71-.45-.44-1.99-.88-3.98-1.31-5.97-.42-.51-.85-1.03-1.27-1.54-1.58-1.43-3.17-2.85-4.75-4.28l-.07-.07c-.38-.42-.76-.83-1.13-1.25.08-.02.21-.02.23-.07.46-1.03,1.05-1.6,2.19-.75.14.11.52-.1.79-.16.66.7,1.31,1.39,2.22,2.36.1-.71.26-1.07.18-1.35-.31-1.05-.63-2.11-1.07-3.11-1.32-2.99-2.73-5.95-4.04-8.94-3.36-7.63-6.69-15.27-10.02-22.92-.31-.7-.73-.99-1.52-.97-1.87.05-3.74-.03-5.61.07-.63.04-1.23.47-1.85.72-.67-1.31-1.33-2.62-2-3.93.67-.03,1.33-.05,2-.08,2.48.01,4.97.15,7.44,0,1.64-.1,2.69.37,3.24,1.9.34.87.69,1.73,1.03,2.6.08.1.16.19.24.29,0,0-.03-.01-.03-.01.07.16.15.33.22.49,1.36,2.99,2.73,5.97,4.06,8.97.64,1.43,1.2,2.9,1.79,4.36.15.26.3.53.45.79.45,1.09.88,2.18,1.34,3.26,2.74,6.47,5.8,12.8,8.58,19.25,1.49,3.46,3.12,6.87,4.66,10.31.21.48.3,1.01.45,1.52.23.48.47.96.7,1.45Z"/><path class="t" d="m39.57,22.32c-.01-6.99-.02-13.98-.02-20.98,0-.23.12-.46.19-.69.76-.19,1.53-.37,2.29-.56.67,1.31,1.33,2.62,2,3.93.03.89-.14,1.86.13,2.67,1.48,4.44,3.06,8.85,4.62,13.27.76,2.15,1.41,4.32,3.26,5.92,2.84,2.47,5.55,5.09,8.34,7.61,1.75,1.58,3.57,3.1,5.35,4.65-.27.06-.65.27-.79.16-1.14-.85-1.73-.28-2.19.75-.02.05-.15.05-.23.07-1.08-.84-2.16-1.67-3.24-2.51,0,0,0,0,0,0-1.03-1.05-2.07-2.11-3.1-3.16-.64-.3-1.33-.74-1.47.48-1.29.89.17,1.9-.06,2.85-.46-.05-.87-.09-1.27-.14-.04-1.58-.08-3.16-.12-4.74-.04-1.52-1.96-3.52-3.38-3.57-.14.79-.29,1.58-.43,2.37-.74-.09-1.48-.17-2.22-.26.07-.52.19-1.04.21-1.56.05-1.61.45-3.33.02-4.81-1.3-4.51-2.91-8.93-4.44-13.38-.1-.3-.5-.5-.77-.75-.16.29-.45.59-.46.88-.03,2.01,0,4.02.02,6.03-.04.08-.04.16,0,.24v.75c-.04.08-.04.16,0,.24v.75c-.04.08-.04.16,0,.24v2.73c-.04.08-.04.16,0,.24-.03.58-.06,1.16-.08,1.74-.2-.18-.54-.34-.58-.55-.18-.95-.84-1-1.59-.94Zm23.33,15.02c-.07-.03-.15-.1-.2-.08-.05.02-.06.13-.09.19.07.03.15.1.2.08.05-.02.06-.13.09-.2Z"/><path class="o" d="m220.15,64.87c.02,8.38.04,16.76.04,25.14,0,2.67-.03,5.34-.04,8.01-.35.04-1,.17-1.01.12-.36-1.26-1.36-.45-2.03-.66.11-.26.3-.52.32-.79.17-1.7.4-3.4.44-5.11.05-2.58-.02-5.17-.11-7.76-.01-.41-.43-.81-.65-1.21-.37.29-.85.51-1.11.87-.96,1.38-1.84,2.82-2.76,4.23-.69-.29-1.39-.57-2.08-.86,1.72-3,3.43-6,5.16-8.99.89-1.54,1.11-3.09.52-4.81-1.74-5.03-3.4-10.08-5.09-15.12.81.08,1.61.17,2.42.25.93,2.49,1.85,4.97,2.9,7.8.39-.62.55-.87.71-1.12h.09s.09,0,.09,0c.73,0,1.46,0,2.19,0Z"/><path class="i" d="m118.88.01c.33,0,.67,0,1,0,.45.01.91.04,1.36.04,1.58,0,1.61.1,1.65,1.69.04,2.08.19,4.15.29,6.22,0,.37-.03.74-.03,1.11-.02,7.3-.04,14.6-.06,21.9-.27-.23-.64-.4-.8-.69-.43-.73-.77-1.51-1.15-2.27,0-.41-.01-.82-.02-1.23,0-4.97,0-9.95,0-14.92,0-.39-.15-.77-.23-1.16-.08-.09-.16-.18-.23-.27-.65-.71-1.13-.62-1.52.27-.19.44-.48.83-.72,1.24-.74-.1-1.6.73-2.23-.26.56-1.32,1.18-2.62,1.65-3.97.37-1.07.59-2.19.79-3.3.14-.78-.37-1.13-1.1-1.14-1.66-.01-3.32-.02-4.98,0-.81.01-1.3.43-1.37,1.27-.09,1.06-.19,2.11-.29,3.17-.14.3-.29.59-.49,1-.41-.83-.64-1.61-1.11-2.2-.6-.74-1.39-1.33-2.1-1.98.66-1.42,1.32-2.84,1.98-4.26.25-.09.5-.18.75-.27.25,0,.5,0,.75,0h8.23Z"/><path class="n" d="m211.17,86.87c.69.29,1.39.57,2.08.86-1.42,2.49-2.85,4.97-4.27,7.47-.84,1.48-.29,2.76,1.4,2.77,2.24.01,4.49-.31,6.74-.48.67.2,1.67-.6,2.03.66.01.05.66-.07,1.01-.12-.16.9-.31,1.8-.47,2.69-.91.95-2.02-.05-2.99.31-.67,0-1.33,0-2,0-.83,0-1.66,0-2.49,0-1.91,0-3.83,0-5.74,0-.58-.02-1.16-.03-1.73-.05-.19-.24-.38-.49-.58-.73-.06-.36-.18-.72-.18-1.08,0-8.3.03-16.59.04-24.89.87-.08,1.54.04,1.51,1.16,0,.18.43.38.65.57.03,3.04.06,6.08.11,9.11.03,1.6.09,3.19.14,4.79-.02.02-.06.05-.05.07.01.06.05.11.07.16.26.56.53,1.11.79,1.67.48-.33,1.09-.57,1.41-1.01.9-1.26,1.69-2.61,2.52-3.93Z"/><path class="h" d="m86.24,61.67c-.4-.13-1.04-.15-1.16-.41-.59-1.23-1.22-1.07-2.01-.24-.11.12-.38.1-.57.14.07-.25.13-.5.2-.74.68-1.6,1.36-3.21,2.04-4.82.06-.12.12-.25.18-.37.94-2.19,1.88-4.38,2.81-6.57.06-.12.13-.25.19-.37,0,0,.11.02.11.02.81-.09,1.63-.17,2.44-.26-.18.54-.34,1.08-.53,1.61-.47,1.28-.97,2.55-1.45,3.82.07.25.13.49.2.74.27-.12.54-.23.82-.35,1.31-1.45,2.62-2.9,3.92-4.35.34.91.67,1.82,1.01,2.74-2.73,3.14-5.46,6.27-8.19,9.41Z"/><path class="u" d="m90.46,48.05c-.81.09-1.63.17-2.44.26.06-.24.12-.49.18-.73.05-.09.11-.18.16-.26.05-.16.11-.32.16-.47.07-.17.15-.34.22-.51.57-1.32,1.14-2.65,1.71-3.97.11-.22.21-.45.32-.67,0,0-.02,0-.03,0,.06-.11.11-.21.17-.32,1.11-2.47,2.23-4.93,3.34-7.4.72.24,1.44.48,2.17.72-.05.2-.07.4-.15.58-1.1,2.5-2.19,5.01-3.32,7.5-.8,1.77-1.66,3.52-2.5,5.28Z"/><path class="f" d="m99.9,20.84c.14-.32.28-.63.42-.95.88-2.07,1.77-4.14,2.65-6.21-.03-.08-.06-.17-.09-.25.17-.1.34-.2.52-.3q-.58,2.38,1.22,2.51c-.15.5-.25,1.02-.45,1.5-.74,1.75-1.5,3.5-2.29,5.24-.56,1.23-1.17,2.43-1.76,3.65-.72-.25-1.44-.49-2.16-.74.64-1.48,1.29-2.97,1.93-4.45Z"/><path class="p" d="m220.15,64.87c-.73,0-1.46,0-2.19,0-.01-.19-.03-.37-.04-.56,0-.21,0-.42,0-.63.01-.08,0-.15-.02-.23-.05-2.91-.09-5.82-.14-8.73.79-.08,1.59-.16,2.38-.25,0,3.46,0,6.93,0,10.39Z"/><path class="e" d="m97.96,25.28c.72.25,1.44.49,2.16.74-.06.27-.09.56-.2.8-1.16,2.62-2.33,5.24-3.5,7.86-.72-.24-1.44-.48-2.17-.72.31-.8.63-1.6.94-2.41.06-.11.11-.22.17-.33.21-.49.43-.98.64-1.47.17-.49.35-.98.52-1.47.26-.5.51-.99.77-1.49.22-.51.45-1.01.67-1.52Z"/><path class="q" d="m136.36,100.22c0-17.64,0-35.28,0-52.92,0-.16.02-.33.04-.49.48,1.03.96,2.05,1.45,3.08.23-.12.47-.24.72-.36.06,1.13.12,2.25.18,3.38l.62.08c.26-.99.52-1.97.78-2.96.81-.33,1.62-.66,2.43-.98l.09-.02c0,.16,0,.32,0,.49-.5,2.48-.99,4.96-1.49,7.44-.04.24-.08.48-.11.72h.02c-.06.08-.11.17-.17.26-.06.32-.12.63-.17.95-.28,1.75-.57,3.49-.85,5.24-.1.67-.3,1.35-.28,2.01.05,1.51.88,1.96,2.27,1.29.09,0,.16-.04.22-.11.11-.07.22-.13.34-.2,1.88-1.08,3.77-2.16,5.65-3.24.16-.09.33-.19.49-.28.09-.07.19-.14.28-.21,0,0-.02.02-.02.02.3-.26.61-.52.91-.77.09-.25.18-.49.28-.74.05-3.05.1-6.1.15-9.15.39.34.77.68,1.16,1.01.39.33.79.65,1.19.97.03,2.23.06,4.45.09,6.68,0,.99,0,1.98,0,2.97,0,.58,0,1.15,0,1.73,0,.16,0,.33,0,.49,0,9.65,0,19.29,0,28.94,0,.74,0,1.48-.01,2.23-.09.82-.18,1.65-.27,2.47-.09.15-.18.3-.27.45-.6.1-1.21.28-1.81.28-4.13.04-8.27.04-12.4.05-.17-.02-.33-.04-.5-.06-.33-.25-.66-.5-.99-.74Zm13.79-32.34c-.15-1.17-.8-1.33-1.73-.8-2.59,1.47-5.2,2.91-7.75,4.44-1.19.71-1.39,1.62-.77,2.83,2.79,5.46,5.58,10.92,8.4,16.37.25.47.67.86,1.01,1.28.16-.03.32-.06.49-.08.11-.68.32-1.35.32-2.03.04-7.28.05-14.57.06-21.85l.06-.09-.09-.06Zm-11.38,22.12s0,0,0,0c0,2.14-.01,4.27,0,6.41,0,.97.57,1.38,1.53,1.38,1.95,0,3.9.05,5.85.02,1.86-.02,2.4-.73,1.59-2.41-2.04-4.22-4.19-8.39-6.37-12.54-.26-.49-.96-.75-1.46-1.12-.38.57-1.06,1.13-1.1,1.73-.13,2.17-.05,4.35-.05,6.53Z"/><path class="j" d="m430.32,92.32c-1.08.24-2.17.48-3.25.72-.75.02-1.49.05-2.24.07-.33,0-.67,0-1,0-.63-.19-1.26-.38-1.9-.57-1.03-.65-2.06-1.31-3.09-1.96-.15-.16-.31-.31-.46-.47-.26-.6-.53-1.19-.79-1.79,0-.07,0-.15,0-.22.01-.08,0-.15-.03-.22.02-.73.03-1.47.05-2.2.17-.42.35-.84.52-1.26.2-.08.4-.17.59-.25-.16-.09-.32-.18-.47-.27.04-.32.08-.64.12-.96.06-.16.13-.32.19-.48.09-.29.18-.58.3-.97-1.98.4-2.22.73-1.77,2.15-2.72,3.35-5.73,6.39-9.5,8.61-.17.07-.34.14-.52.21-.56.28-1.1.71-1.69.8-.64.1-1.32-.12-1.99-.2-3.48-1.11-4.35-3.29-4.25-5.87.04-.88.22-1.76.35-2.76-1.16.29-2.14.52-3.11.76-.15.07-.3.14-.46.21-1.45.56-2.9,1.12-4.36,1.69-.23.08-.46.16-.69.24-.77.25-1.54.49-2.32.74-.23.08-.46.15-.69.23-.66.2-1.31.4-1.97.6-.33.08-.67.17-1,.25-.75.25-1.5.49-2.25.74-.42.14-.84.27-1.26.41-.92.25-1.83.49-2.75.74-.16.03-.32.06-.48.09-3.24.65-6.49,1.29-9.73,1.94-.25-.02-.5-.03-.75-.05-.16-.29-.33-.58-.49-.86-.17.28-.34.57-.51.85-.33.03-.67.07-1,.1-.91-.36-1.82-.71-2.73-1.07-.17-.13-.34-.27-.52-.4-.84-1.03-1.76-2.02-1.45-3.52.36-.02.72-.04,1.34-.08-.36-.58-.63-.99-.89-1.41.27-.71.54-1.41.8-2.12.24-.45.48-.89.72-1.34.39-.08.78-.17,1.41-.3-.48-.37-.71-.55-.95-.73.03-.24.05-.47.08-.71.06-.09.12-.18.18-.27.02-.16.04-.31.06-.47.21,0,.52.06.6-.04.32-.41.6-.85.79-1.33.04-.09-.41-.38-.63-.57-.27.4-.56.79-.8,1.21-.07.12-.01.32-.01.49-.47.47-.93.95-1.4,1.42-.13-.1-.26-.2-.39-.3.03.24.06.47.09.71-.2.33-.4.66-.6.99-.75.88-1.5,1.76-2.25,2.64-.07.13-.14.26-.21.39-.51.51-1,1.04-1.52,1.54-2.04,1.99-4.13,3.9-6.93,4.84-2.63.88-5.03-.09-5.72-2.34.23-.23.45-.47.68-.7-.31-.26-.61-.52-.92-.78.08-.25.16-.49.24-.74.08-.01.17,0,.24-.05,1.69-1.03.75-2.98,1.53-4.34,0,0-.13-.08-.2-.12.22-.48.44-.95.67-1.43.39-.22.8-.42,1.14-.7.05-.04-.29-.52-.45-.8.07-.24.13-.48.2-.72.13-.25.26-.49.39-.74.28-.08.56-.15.84-.23-.17-.19-.33-.37-.5-.56.06-.22.11-.45.17-.67.14-.17.28-.35.43-.52.33-.19.74-.32.97-.59.1-.12-.16-.54-.26-.83l-.97.69c-.42.08-.85.2-1.27.25-.53.06-1.06.05-1.59.07-.12.21-.24.41-.37.62-5.6,1.85-11.33,3.02-17.21,3.54-.58.08-1.16.17-1.75.25-.25,0-.5-.01-.75-.02-.67,0-1.33.01-2,.02-.25,0-.5,0-.75,0-.75.14-1.49.28-2.24.42-.67-.14-1.34-.28-2.01-.42-.33,0-.67,0-1,0-.42,0-.83,0-1.25,0-1.08-.18-2.15-.44-3.23-.51-.57-.03-1.52.12-1.69.48-.96,2.01-1.73,4.1-2.57,6.17-.2.18-.41.36-.61.54-.03.12-.06.23-.09.35.06.18.11.35.17.53-.3.68-.6,1.36-.9,2.04-.11.23-.23.45-.34.68-.36.34-.73.68-1.1,1.01-.14,0-.28.02-.42.02-.15.15-.31.3-.46.45-.5,0-1,.01-1.5.02-.33-.37-.89-.72-.93-1.12-.09-.95-.67-.82-1.27-.8-.1-.91-.19-1.82-.29-2.73.15-.22.3-.44.46-.66-.27-.1-.54-.19-.81-.29l-.89-2.26c.15-.14.3-.28.45-.42-.27-.09-.53-.19-.8-.28-.35-.5-.7-1.01-1.05-1.51-.11-.17-.21-.34-.32-.51l-1.22-2.22c.56-.49,1.12-.99,1.68-1.48,1.07,1.81,2.14,3.63,3.21,5.44-.14.26-.27.53-.41.79.33.14.67.28,1,.42.03.31.07.61.14,1.29.39-.4.62-.63.84-.87.3-.12.59-.24.89-.36l-.44-.54c.51-1.4,1.02-2.8,1.52-4.2.33-.21.73-.37.97-.66.15-.18.05-.56.06-.85l-.82.08c-.73-.23-1.46-.48-2.19-.67-1.5-.4-3.01-.77-4.52-1.15-.11-.22-.22-.44-.33-.66-.14.15-.28.3-.42.45-.79.27-.39.5.02.73,0,0-.01,0-.01,0,0,.09,0,.17,0,.26-.58.12-1.16.25-1.94.42.02-.09-.03.14-.07.36-.38,0-.79-.1-1.14.01-.98.33-1.91.78-2.89,1.1-1.47.48-2.97.88-4.45,1.32-.08-.08-.16-.16-.23-.25-.17.23-.34.46-.51.69-1.3.44-2.59.93-3.91,1.29-1.42.39-2.87.66-4.31.98-.17.14-.34.29-.52.43-.67.26-1.34.51-2.01.77l-.49.06c-1.58.34-3.16.68-4.74,1.01-.67.17-1.33.33-2,.5-.63-.1-1.25-.18-1.42.68l-.28.74c-.12.24-.23.48-.35.72-.64.81-1.27,1.63-1.91,2.44,0,0-.07.08-.07.08l-.47.45c-1.41.77-2.82,1.53-4.23,2.3-.5.13-1,.26-1.5.39-.25-.56-.5-1.12-.75-1.69.4-.22.79-.43,1.19-.65.27.12.56.38.8.34.65-.12,2.12-2.39,1.99-3.05-.04-.22-.29-.4-.44-.6-.05-1.07-.81-.46-1.28-.53-.08-.12-.17-.24-.25-.36-.08.12-.17.24-.25.36-.75.07-1.5.15-2.25.22-.11-.13-.22-.27-.33-.4-.14.14-.28.28-.42.42-.25.08-.5.17-.75.25-.35-.12-.7-.24-1.05-.37.07.4.13.8.2,1.2-.81,2.03-.56,2.81,1.09,3.45.25.55.5,1.1.75,1.65-1.16,0-2.32.02-3.49.02-.66-.25-1.31-.49-1.97-.74-2.08-1.6-2.41-2.6-1.71-5.16.07-.16.13-.31.2-.47.24-.26.48-.53.72-.79.33-.25.67-.49,1-.74.67-.17,1.33-.35,2-.52.33,0,.67-.01,1-.02,2.33-.23,4.66-.44,6.99-.7.28-.03.53-.33.79-.5.03-.02.08-.05.08-.06-.01-.06-.04-.11-.06-.17-.03-.09-.07-.17-.1-.26v-.74c0-.58,0-1.15,0-1.73.11-1.4.22-2.8.33-4.2,1.45-.21.97-1.49,1.24-2.31.4-1.2.04-1.64-1.24-1.9,0-.25,0-.49,0-.74.13-.19.29-.37.36-.58.02-.05-.28-.2-.43-.31-.08.2-.16.4-.24.6-1.13.57-2.25,1.15-3.38,1.72-.29.06-.58.11-.86.17-.17-.12-.34-.23-.5-.35.41-.75.83-1.5,1.24-2.26.83-.5,1.67-1.01,2.5-1.51.21-.08.43-.17.64-.25.38-.22,1.57.73,1.08-.74,0-.15,0-.3,0-.45.03-.08.05-.16.08-.25l.35-.26c-.12-.08-.24-.17-.36-.25l-.08.03c.11-.34.23-.67.34-1.01.06-.09.13-.18.19-.28.08-.24.16-.48.24-.72.99.05.78-.47.5-1.03.24-.56.48-1.12.72-1.68.14-.18.29-.36.43-.53.35-.12.69-.25,1.04-.37l-.33-.66c.21-.31.41-.62.62-.93.46-.46.92-.91,1.38-1.37,0,0,0,0,0,0,.24-.19.49-.38.73-.57.97-.27,1.94-.55,2.91-.82.17.1.35.2.52.29.1.08.19.16.29.25.06.08.13.17.19.25.51,2.83-1.11,4.83-2.72,6.84-.18.28-.36.55-.54.83-1.19,1.15-2.38,2.29-3.57,3.44.04.75.09,1.5.13,2.25.17.58.34,1.16.51,1.74.06.09.11.17.17.26.08.25.16.5.25.74.03.16.05.32.08.48.5,2.56,1,5.11,1.5,7.67l-.12.51s-.07.05-.07.07c.01.05.04.11.06.16.33.07.66.15,1,.22.73.26,1.54.79,1.83-.5,1.08-.24,2.15-.49,3.23-.73.73.66,1.28.52,1.99-.5.67-.25,1.34-.49,2.01-.74.33-.08.67-.16,1-.24.49-.08.99-.17,1.48-.25.33.17.72.52.98.44.25-.08.36-.6.53-.92,0-.06.02-.13.02-.19.57-.12,1.14-.24,1.71-.36.25.18.49.36.74.55.18-.32.35-.64.53-.96.5-.16,1-.32,1.5-.48.26.15.52.29.78.44.16-.3.31-.6.47-.9,1.5-.6,2.99-1.21,4.49-1.81.34-.15.69-.3,1.03-.45.2.04.4.08.59.12.02-.07.04-.14.06-.21-.21-.05-.42-.1-.64-.16-.78-.82-1.56-1.64-2.34-2.46-.48-.35-.95-.71-1.43-1.06-.91-.65-1.81-1.29-2.72-1.94-.09-.11-.18-.22-.28-.33.01-.13.02-.27.03-.4.06,0,.12,0,.19,0,.68.05,1.04-.23,1-.94.59.17,1.23.25,1.77.54.86.45,1.65,1.04,2.47,1.57l.28.3c-.05.12-.1.24-.15.36.12-.09.24-.18.36-.27.42.21.83.41,1.25.62.41.2.82.39,1.23.59.85.65,1.73,1.03,2.76.38.75-.46,1.5-.92,2.26-1.38.66-.35,1.32-.7,1.98-1.04.17.12.35.23.52.35.07-.27.15-.55.22-.82,1.09-.82,2.19-1.64,3.28-2.46.42-.33.84-.66,1.27-.99.07-.09.14-.17.21-.26.66-.58,1.32-1.16,1.98-1.73.45,0,.9,0,1.35-.01-.19-.24-.38-.48-.58-.72.25-.25.5-.49.75-.74.29-.08.58-.16.88-.24-.12-.08-.24-.17-.36-.25.15-.25.31-.5.46-.75.4-.16.81-.33,1.21-.49-.2-.27-.41-.54-.61-.8.13-.31.27-.62.4-.93,1.35-.11,1.48-.33,1-1.73l.25-.74c.95-.22,2.23-2.47,1.87-3.31-.03-.08-.21-.1-.32-.15.22-.43.44-.87.66-1.3.09.07.17.16.27.21.02.01.1-.09.15-.14-.12-.08-.24-.17-.36-.25.31-.6.62-1.19.93-1.79.24.01.48.02.72.04l-.62-.47c0-.09,0-.17,0-.26.06-.06.12-.13.18-.19.11-.26.23-.53.34-.79.13,0,.26,0,.4,0,.25-.12.57-.18.73-.37.21-.23.22-.72.45-.85.87-.46.52-.93.13-1.45.14-.27.27-.54.41-.81.24-.08.48-.16.72-.24-.12-.16-.23-.32-.35-.49.3-.5.6-1,.9-1.5l.36.13c-.08-.14-.15-.27-.23-.41.45-.74.9-1.47,1.35-2.21,1.11.13,1.19-.38.76-1.21.24-.34.49-.69.73-1.03.12.06.24.12.35.18-.06-.14-.12-.28-.18-.42.43-.43.87-.87,1.3-1.3.47.4.97,1.29,1.31-.09l-.03-.09.4.11c.14.56.27,1.11.41,1.67-.09.49-.17.99-.26,1.48-1.53,3.76-3.05,7.52-4.58,11.28-.19.43-.38.87-.57,1.3-.2.51-.4,1.02-.61,1.52-.51,1.23-1.02,2.47-1.54,3.7-.11.24-.23.48-.34.72-2.3,5.52-4.6,11.03-6.9,16.55-.11.19-.22.38-.32.57-.23.56-.46,1.13-.7,1.69.09.18.18.37.27.55v-.02c.08.06.17.13.27.19,1.58.08,3.16.16,4.75.24.08.03.17.06.25.09.14.89.72,1.24,1.56,1.19.97-.06,1.97-.06,2.91-.27.55-.12,1.01-.6,1.51-.92.17-.03.33-.06.5-.09,1.75-.16,3.49-.31,5.24-.47.5,0,.99,0,1.49,0-.06.7.37.77.94.78.86.02,1.03-.5,1.07-1.18.41-.03.82-.06,1.24-.09.17-.05.34-.11.51-.16.5-.09,1-.18,1.5-.28.1.65.45.79,1.06.57.49-.18,1.07-.15,1.53-.38.3-.15.44-.59.66-.91.25-.08.5-.17.75-.25.17.8.64.78,1.29.53.63-.24,1.3-.4,1.96-.58.72-.2,1.63-.19,1.5-1.34.18-.29.36-.59.54-.88,1.2.02.93-.85.94-1.54.3-.21.6-.42.91-.63.29-.1.58-.2.86-.3.32.15.84.51.92.42.5-.48.89-1.06,1.32-1.61.91-.36,1.83-.73,2.74-1.09.24-.01.48,0,.71-.03,1.39-.22,2.42.5,2.58,1.81-.38,1.22-.68,2.47-1.14,3.65-1.41,3.58-2.88,7.14-4.31,10.71-.09.22-.09.48-.13.72-.13.16-.26.32-.38.48.25.08.5.15.75.23.23.02.45.05.68.07.08.12.15.23.23.35.09-.14.17-.29.26-.43.56-.37,1.13-.73,1.69-1.1.38.8.84.78,1.41.17.21-.23.53-.36.74-.59.94-1.06,2.22-1.96,1.91-3.66h0c.64.08.83-.25.73-.82.99-1.21,1.99-2.42,2.98-3.64.48-.03.95-.05,1.43-.08,0-.09,0-.17.01-.26-.27-.15-.54-.31-.81-.46,1.42-1.77,2.84-3.54,4.27-5.3,1.11-1.36,2.49-2.14,4.33-1.78.02.07.04.13.06.2.32.75.63,1.5.95,2.26-.46,1.72-.91,3.44-1.38,5.15-.09.35-.25.68-.37,1.02-.11.24-.21.48-.32.73-.64,1.55-1.28,3.1-1.92,4.66-.11.19-.21.39-.32.58-.21.66-.43,1.31-.64,1.97-.15.33-.31.66-.46.99-.11.33-.22.66-.33.99-.71.74-.62.96.51,1.25v.02c.06.66.29,1.05,1.03.69.33-.01.66-.03.99-.04.67,0,1.33.01,2,.02l.74.02c.18.23.36.45.54.68.16-.29.31-.58.47-.87.75-.16,1.5-.31,2.24-.47.25.22.51.44.76.66.16-.31.33-.62.49-.93.83-.19,1.66-.38,2.48-.57.42.16.84.31,1.26.47l.4-1.14c.88-.2,1.77-.41,2.65-.61.13-.12.26-.25.39-.37l2.04-.33c.31.17.61.33.92.5.2-.39.39-.78.59-1.17.5-.11.99-.23,1.49-.34.25.18.5.36.76.54.17-.31.33-.62.5-.93.09-.09.18-.19.28-.28.66-.16,1.32-.32,1.98-.48.14.14.28.29.42.43.11-.22.21-.44.32-.65.75-.27,1.49-.54,2.24-.81.11.14.22.28.33.42.14-.23.28-.45.41-.68.09-.09.17-.17.26-.26,2.47-.09,4.19-1.25,5.14-3.53.13-.32.41-.59.62-.88.08-.08.16-.16.23-.24,1.57-1.66,3.14-3.32,4.71-4.97.09-.06.18-.12.27-.18.18-.19.37-.37.55-.56.07-.06.13-.12.2-.19l.25-.08c.84-.45,1.69-.9,2.53-1.35.91-.34,1.83-.69,2.74-1.03.74-.12,1.48-.25,2.21-.37.92,0,1.83,0,2.75,0,.17,0,.33.01.5.02.49.14.97.27,1.46.41.42.14.84.29,1.26.43.26.16.51.32.77.48.15.13.31.26.46.39l.28-.7c0-.15.01-.31.02-.46.19-.41.38-.82.57-1.23.07-.17.15-.34.22-.51.57-1.23,1.14-2.47,1.7-3.7.2-.41.4-.82.61-1.23.3-.67.59-1.34.89-2.02.13-.25.27-.5.4-.74.57-1.34,1.15-2.68,1.72-4.02.29-.56.57-1.11.86-1.67.26-.57.53-1.14.79-1.72.07-.16.15-.33.22-.49.24-.67.49-1.33.73-2l.12.03c.21-.42.42-.85.63-1.27-.01-.08-.02-.17-.03-.25l.09.02c.07-.08.13-.16.2-.25.35-.83.7-1.66,1.04-2.49.07-.08.13-.15.2-.23.1-.16.19-.33.29-.49.08-.17.15-.33.23-.5l.53-1.5.2-.22c.52-1.07,1.04-2.14,1.56-3.21.78,0,1.01-.43.89-1.13.43-.48.86-.95,1.28-1.43.85-.23,1.71-.46,2.53-.68,1.36,1.54.56,3.07-.02,4.49-1.16,2.87-2.52,5.67-3.72,8.53-3.26,7.81-6.47,15.64-9.73,23.45-1.44,3.45-3.04,6.84-4.38,10.32-.49,1.28-.41,2.77-.59,4.16.09.16.19.33.28.49.79,1.47,2.1,1.84,3.65,1.69.51-.1,1.03-.19,1.54-.29,2.48-.81,4.96-1.62,7.44-2.43.33-.15.67-.3,1-.45,3.39-1.61,6.82-3.14,10.16-4.84,3.82-1.95,7.57-4.06,11.34-6.11.46-.25.88-.6,1.32-.9-.12-.51-.23-1.02-.35-1.52.4-.41.76-.86,1.2-1.22.37-.3.83-.51,1.25-.75.09-.05.19-.11.28-.16,1.92-.77,3.83-1.54,5.75-2.31.17,0,.33,0,.5,0,2.29.74,2.4,1.2,1.65,3.84-.25.88-.64,1.71-.96,2.57-.48,1.16-.97,2.32-1.45,3.47-.12.24-.23.47-.35.71-.3.74-.6,1.49-.89,2.23-.72,1.69-1.54,3.34-2.13,5.07-.64,1.89.06,2.72,2.07,2.87,2.62.2,5.16-.27,7.62-1.03,8.05-2.49,16.06-5.09,24.07-7.68.39-.13.79-.48,1-.83.6-.98,1.1-2.02,1.64-3.04.51-.66,1.02-1.31,1.53-1.97.56-.58,1.13-1.17,1.69-1.75,1.65-1.07,3.3-2.14,4.95-3.21,1.41-.36,2.82-.71,4.23-1.07,1.22.08,2.43.17,3.65.25.28.02.56.05.84.07,2.21,1.03,3.45,2.72,3.54,5.17-.09,1.48-.18,2.96-.27,4.45-.46-.16-1.1-.18-1.33-.5-.8-1.07-2-.67-3-.94-.17-.05-.45.31-.68.47-2.77-2.64-.81-4.32,1.56-5.89-1.86-1.14-3.46-1.05-5.05-.27-2.11,1.03-3.56,2.77-4.97,4.56-.45.58-.8.86.07,1.37.34.2.64.84.58,1.21-.06.34-.6.65-.98.88-.64.39-1.33.72-1.99,1.07-1,.14-1.98.46-2.94-.29-.16-.12-1.14.32-1.16.57-.11.95-.67,1-1.39.98-.52-.02-1.04,0-1.61,0-.04.55-.06.91-.08,1.27-2.07.65-4.15,1.3-6.22,1.95-2.15.69-4.3,1.39-6.46,2.07-2.34.74-4.68,1.45-7.02,2.17-.25.09-.5.17-.75.26-.58.16-1.16.32-1.75.48-.25.14-.51.28-.76.42-.5.08-1,.17-1.5.25-.16.02-.33.05-.49.07-.17.06-.34.12-.51.18-.25.02-.49.05-.74.07-.58.15-1.17.29-1.75.44-1.4.21-2.8.44-4.21.6-.58.06-1.17-.07-1.76-.08-.92-.02-1.83-.01-2.75-.02-.17-.06-.33-.13-.5-.19-3.11-1.36-3.68-3.76-2.3-6.83,1.16-2.57,2.14-5.22,3.19-7.84.09-.21.07-.47.1-.7.04-.12.07-.25.11-.37-.12.11-.23.22-.35.33-1.83.95-3.68,1.88-5.49,2.86-7.47,4.03-14.98,7.99-22.95,11-1.16.44-2.33.85-3.49,1.27Zm-127.77-16.08c.14.15.29.3.43.45.11-.15.21-.29.32-.44.75.25,1.5.51,2.25.76.16.21.32.41.48.62.09-.2.18-.4.27-.6.33-.12.65-.23.98-.35.18.16.36.33.54.49.13-.14.26-.28.39-.42-.24-.18-.47-.35-.71-.53l1.77-4.24c.23.03.46.06.69.09-.14-.26-.28-.52-.42-.79.12-.34.24-.69.37-1.03.66-.02,1.13-.16.64-.95l-.12-.92c-.09,0-.18-.02-.27-.03-.12.22-.24.43-.36.65-1.27.96-2.51,1.97-3.82,2.86-.75.51-1.04,1.05-.71,1.9-.29.14-.58.28-.86.42.17.12.34.24.51.36-.7.32-1.4.64-2.1.96,0-.09,0-.17,0-.26-.23-.15-.57-.47-.67-.41-.24.15-.54.51-.5.73.05.26.43.45.67.68h.25Zm108.56,3.73c-.4.16-.82.28-1.19.48-.87.48-2.09.81-2.48,1.56-.71,1.35-1.03,2.94-1.27,4.47-.1.61.28,1.48.74,1.93.29.28,1.22.19,1.71-.04.92-.44,1.8-1.03,2.56-1.7,3.83-3.37,7.18-7.15,9.98-11.42l.56-.16c-.07-.12-.14-.24-.21-.37.57-.91.28-1.65-.57-2.13-.65-.37-1.39-.57-2.09-.85-.41-.73-.82-.71-1.25-.02-3.51.58-5.39,3.34-7.62,5.62-.08.08.17.6.38.82.17.18.49.21.75.31,0,.49.01.99.02,1.48Zm-42.14-8.22c.07.08.15.16.22.23.14-.15.29-.31.43-.46-.05-.06-.1-.11-.16-.17-.17.13-.33.26-.5.39Z"/><path class="j" d="m516.65,78.48c.23-.17.51-.52.68-.47,1.01.27,2.2-.13,3,.94.24.32.88.34,1.33.5,1.22,1.02,2.76,1.08,4.2,1.2,5.32.43,10.33-.76,15.09-3.1.49-.24,1.1-.26,1.65-.38.57.73.2,1.28-.45,1.59-1.97.93-3.94,1.84-5.96,2.64-1.32.52-2.72.85-4.1,1.22-.38.1-.81.04-1.22.05-.5.02-1,.03-1.5.05-.92,0-1.83,0-2.75,0-.42.07-.85.14-1.27.2-1.07-.26-2.14-.51-3.21-.77-.67-.26-1.34-.53-2.06-.81-.64,4.05-5.45,9.04-10.71,11.32-2.56.74-5.04.46-7.46-.56-1.77-1.03-3.01-2.49-3.25-4.55-.14-1.18-.01-2.4,0-3.6.02-.36.05-.72.08-1.27.57,0,1.09-.01,1.61,0,.71.02,1.28-.02,1.39-.98.03-.25,1-.7,1.16-.57.96.75,1.94.44,2.94.29-.15.5-.3.99-.46,1.49-.15,1.43-.45,2.86-.42,4.28.05,2.74,2.31,4.4,4.96,2.88,3.36-1.94,5.62-4.89,7.19-8.39.2-.49.41-.98.61-1.48.11-.07.23-.15.34-.22l-.41-.27c-.34-.41-.67-.82-1.01-1.22Z"/><path class="j" d="m477.93,56.58c-1,.12-2.03.43-3.01.32-2.14-.25-3.88-2.37-3.92-4.51-.01-.55-.07-1.1-.1-1.62.36-.48.73-.98,1.1-1.48.35-.33.7-.66,1.04-.99.25-.13.49-.26.74-.38.43-.15.86-.29,1.29-.44,0,0,.11,0,.11,0,1.01-.34,1.89-.17,2.68.56.83.78,1.68,1.53,2.53,2.29,0,0,.02.02.02.02.26,1.53.52,3.05-.54,4.41-.05.02-.08.05-.09.1-.52.47-1.03.95-1.55,1.42-.07.05-.15.11-.22.16-.06.02-.09.06-.07.13Z"/><path class="j" d="m359.18,81.92c.3,1.7-.97,2.6-1.91,3.66-.2.23-.52.36-.74.59-.57.61-1.03.63-1.41-.17,1.35-1.36,2.7-2.72,4.05-4.07Z"/><path class="j" d="m341.23,76.53c.85-.88,2.06-.67,3.09-1,.41-.16.83-.32,1.24-.48.14.03.27.06.41.09.13,1.14-.78,1.14-1.5,1.34-.66.18-1.33.33-1.96.58-.65.25-1.12.27-1.29-.53Z"/><path class="j" d="m344.75,88.12c.01-.25.03-.49.04-.74.07-.33.14-.65.2-.98.08-.17.16-.34.25-.51.36-.76.72-1.52,1.07-2.28.07.04.2.12.2.12-.78,1.36.16,3.31-1.53,4.34-.06.04-.16.03-.24.05Z"/><path class="j" d="m257.63,95.09c-.08-.03-.17-.05-.25-.08-.25-.55-.5-1.1-.75-1.65.58-.1,1.16-.2,1.75-.3.25.56.5,1.12.75,1.69-.5.11-1,.23-1.5.34Z"/><path class="j" d="m258.13,74.52c-.18-.17-.36-.34-.54-.5.1-1.08.99-1.36,1.78-1.75-.41.75-.83,1.5-1.24,2.26Z"/><path class="j" d="m347.67,80.68c.16.28.5.77.45.8-.34.28-.75.48-1.14.7.23-.5.46-1,.69-1.51Z"/><path class="j" d="m373.13,72.04c-.32-.75-.63-1.5-.95-2.26.25.16.5.32.75.48.07.59.13,1.18.2,1.77Z"/><path class="j" d="m363.52,76.67l.81.46c0,.09,0,.17-.01.26-.48.03-.95.05-1.43.08.21-.27.42-.53.63-.8Z"/><path class="j" d="m266.7,62.32l.33.66c-.35.12-.69.25-1.04.37.24-.34.47-.68.71-1.02Z"/><path class="j" d="m288.82,69.61c.04.7-.32.99-1,.94,0-.13,0-.25,0-.38.33-.19.66-.37,1-.56Z"/><path class="j" d="m263.6,69.77c.48,1.47-.71.51-1.08.74.13-.12.26-.24.39-.36.23-.12.46-.25.69-.37Z"/><path class="j" d="m264.34,66.59c.08-.24.15-.49.23-.73.02-.08.05-.16.07-.24.07-.02.13-.04.2-.06.28.56.49,1.08-.5,1.03Z"/><path class="j" d="m251.14,87.87c.1-.16.21-.31.31-.47.23-.09.46-.18.69-.27-.33.25-.67.49-1,.74Z"/><path class="j" d="m352.28,87.1c-.25-.08-.5-.15-.75-.23.13-.16.26-.32.38-.48.12.24.25.48.37.72Z"/><path class="j" d="m359.91,81.1c.1.57-.09.89-.73.82.24-.27.49-.55.73-.82Z"/><path class="j" d="m469.24,69.32c-.17,0-.33,0-.5,0,.17,0,.33,0,.5,0Z"/><path class="j" d="m353.44,87.09c-.09.14-.17.29-.26.43-.08-.12-.15-.23-.23-.35.16-.03.32-.05.49-.08Z"/><path class="j" d="m287.83,70.17c0,.13,0,.25,0,.38-.06,0-.12,0-.19,0,.06-.13.13-.26.19-.39Z"/><path class="j" d="m462.99,71.63c-.09.05-.19.11-.28.16.09-.05.19-.11.28-.16Z"/><path class="j" d="m263.88,67.36c.08-.02.15-.04.23-.06-.06.09-.13.18-.19.28-.04-.07-.05-.14-.04-.22Z"/><path class="j" d="m262.94,85.16c.02.06.05.11.06.17,0,.02-.05.04-.08.06-.02-.08-.02-.16.02-.23Z"/><path class="o" d="m194.1,26.77c.78.16,1.56.33,2.35.49-.18.46-.33.92-.53,1.36-1.12,2.49-2.28,4.97-3.38,7.48-1.28,2.91-2.51,5.84-3.77,8.76-.66-.34-1.31-.68-1.97-1.01,1.34-3.15,2.69-6.3,4.02-9.46.9-2.14,1.79-4.29,2.69-6.44.17-.41.39-.79.59-1.19Z"/><path class="o" d="m186.27,44.86c-.07.24-.14.48-.21.72.07-.24.14-.48.21-.72Z"/><path class="o" d="m186.54,44.35c-.07.08-.14.16-.22.24.07-.08.14-.16.22-.24Z"/><path class="m" d="m138.55,49.53c-.24.12-.49.24-.72.36-.48-1.03-.96-2.05-1.45-3.08-.01-4.97-.04-9.94-.04-14.92,0-7.73.02-15.45.04-23.18.73.7,1.44,1.34,1.03,2.57-.23.68-.04,1.5-.04,2.25l.48.28c.24-.38.49-.77.73-1.15.01,7.77.03,15.53.03,23.3,0,4.52-.04,9.04-.07,13.56Z"/><path class="m" d="m172.79,68.56c.49,2.52.98,5.03,1.46,7.55.39,2.08.76,4.16,1.16,6.24.21,1.08.39,2.16.73,3.2.29.87.83,1.61,1.95,1.57,1.26-.05,2.7.5,3.32-1.3.37-1.08.96-2.09,1.44-3.14.56.5,1.11,1,1.67,1.5-.11.32-.23.65-.34.97-.28.09-.57.17-.85.26.17.17.33.33.5.5-.17.59-.3,1.18-.51,1.75-.26.7-.58,1.38-.88,2.06-.41.22-.81.62-1.22.63-2.32.06-4.65.03-6.88.03-1.24-2.55-2.57-5.23-3.84-7.93-.49-1.05-.85-2.15-1.27-3.23-.39-.84-.78-1.69-1.17-2.53-1.01-2.29-2.03-4.58-3.04-6.87-.56-.94-1.13-1.87-1.69-2.81-.23-2.74-1.5-5.02-3.18-7.12.06-.24.11-.48.17-.72-.25-.28-.49-.55-.74-.83-.07-.07-.13-.13-.2-.2-.17-.78-.2-1.63-.54-2.33-.72-1.5-1.67-2.89-2.37-4.4-.5-1.09-.71-2.31-1.11-3.45-.2-.57-.54-1.09-.81-1.64-.16-.34-.33-.68-.49-1.01-.08-.17-.16-.33-.24-.5-.36-.75-.73-1.5-1.09-2.25-.12.05-.24.1-.36.15.07.87.15,1.75.22,2.62,0,.25,0,.49,0,.74-.03,2.89-.05,5.77-.08,8.66-.4-.32-.8-.64-1.19-.97-.39-.33-.77-.67-1.16-1.01-.02-.49-.06-.98-.06-1.47-.03-6.27-.06-12.54-.08-18.82l.08-.74q1.6-.27,1.73,1.29c0,.07,0,.13.03.2.26.9.52,1.8.77,2.7,2.3,5.2,4.6,10.4,6.9,15.6.08.12.16.23.23.35.79,1.85,1.55,3.7,2.36,5.53,2.7,6.04,5.41,12.07,8.14,18.09.28.61.7,1.16,1.06,1.74.17-.06.34-.12.52-.18-.12-1.18-.25-2.35-.37-3.53.03-.08.02-.16-.02-.23-.07-.33-.14-.67-.21-1-.07-.25-.14-.5-.21-.75,0-.49,0-.99,0-1.48.63-.45,1.64-.45,1.74-1.5Z"/><path class="o" d="m191.88,47.34c.79-.91,1.57-1.82,2.37-2.72.24-.27.5-.52.75-.77.7-.82,1.4-1.63,2.1-2.45.39-.49.77-.97,1.16-1.46.09-.1.18-.2.27-.3.15-.17.29-.34.44-.51.2-.32.4-.64.6-.96.3-.27.61-.53.91-.8.09.76,0,1.61.31,2.26.7,1.44,1.61,2.78,2.44,4.16-.41.34-1,.6-1.2,1.03-1.48,3.18-2.9,6.39-4.3,9.6-.61,1.41-1.09,2.87-1.71,4.28-.81,1.85-1.68,3.67-2.56,5.49-.43.9-.94,1.76-1.42,2.64-.78.07-1.77.56-1.81-.87,1.38-3.23,2.76-6.46,4.15-9.69,1.29-3,2.58-5.99,3.87-8.99.08-.16.15-.32.23-.49.1-.3.2-.59.3-.89.05-.11.11-.23.16-.34,0-.33.01-.67.02-1-.24,0-.48,0-.72,0-1.83,2.05-3.66,4.09-5.5,6.14-.48-.39-1.27-.74-1.35-1.19-.08-.5.53-1.09.79-1.67.05-.11-.18-.34-.29-.52Z"/><path class="m" d="m140.13,50.03c.73-3.52,1.48-7.04,2.18-10.56.75-3.77,1.46-7.55,2.19-11.33.43-2.26-.02-4.4-.8-6.52-.91-2.46-1.72-4.97-2.57-7.45.66-.17,1.33-.34,1.99-.51.32.67.69,1.33.95,2.03.59,1.61,1.26,3.22,1.66,4.88.71,2.95,2.43,5.14,4.78,6.94.29.22.53.51.79.76-1.23.3-1.35,1.32-1.52,2.3-.73-.7-1.46-1.41-2.19-2.11-.2-.16-.39-.32-.75-.6-.51,2.5-.99,4.8-1.46,7.1-.12.73-.24,1.46-.36,2.2-.08.54-.16,1.08-.24,1.62-.07.37-.14.75-.22,1.12-.31,1.49-.61,2.97-.92,4.46-.04.07-.05.15-.02.23-.36,1.49-.71,2.98-1.07,4.47-.81.33-1.62.66-2.43.98Z"/><path class="p" d="m206.7,34.44c-.16,2.12.76,4,1.41,5.93,2.01,5.94,4.04,11.88,6.06,17.82-.81-.08-1.61-.17-2.42-.25-.4-1.08-.78-2.16-1.19-3.23-.77-1.98-1.56-3.96-2.32-5.94-.27-.7-.27-1.75-1.26-1.65-1,.09-.7,1.11-.78,1.8,0,.04-.01.08-.02.12-.44-.57-.89-1.14-1.33-1.72-.36.3-.62.51-.87.73-.02-.77.05-1.55-.08-2.29-.11-.67-.44-1.3-.67-1.95-.83-1.38-1.74-2.72-2.44-4.16-.32-.65-.22-1.5-.31-2.26.17-.39.35-.77.52-1.16.17-.09.33-.18.5-.26,1.54-.84,1.89-2.43,2.46-3.88.87.84,1.13,2.36,2.74,2.36Z"/><path class="d" d="m46.29,46.56c-.83,4.43-1.67,8.86-2.49,13.29-.3,1.59-.57,3.19-.85,4.78-.06.08-.12.16-.17.25h0c-.84.18-1.53.19-1.83-.89-.06-.23-.9-.25-1.38-.36-.01-4.07-.04-8.14-.04-12.21,0-9.7.03-19.4.04-29.1.75-.06,1.41-.02,1.59.94.04.21.38.37.58.55.03.33.05.66.08.99-.04.08-.04.16,0,.24,0,.25,0,.5,0,.75-.04.08-.04.16,0,.24,0,.25,0,.5,0,.75-.04.08-.04.16,0,.24,0,5.86,0,11.72,0,17.57-.04.08-.04.16,0,.24,0,.25,0,.5,0,.75-.04.08-.04.16,0,.24,0,.25,0,.5,0,.75-.04.08-.04.16,0,.24,0,.25,0,.5,0,.75-.04.08-.04.16,0,.24,0,.25,0,.5,0,.75-.04.08-.04.16,0,.24-.02.25-.04.49-.06.74-.06.06-.11.11-.17.17.06.03.11.06.17.09,0,.16,0,.32,0,.48-.06.06-.11.12-.17.17.06.03.12.06.17.09.03.32.06.65.09.97.08.37.16.73.32,1.44.06-.55.08-.74.1-.94.25-.3.62-.55.73-.89.4-1.25.7-2.53,1.04-3.8.75-.25,1.5-.49,2.24-.74Z"/><path class="d" d="m53.29,67.11c-.64.03-1.37-.13-1.9.12-1.42.68-2.76,1.54-4.13,2.33-.5-.84-1-1.68-1.51-2.52,1.84-1.08,3.65-2.21,5.52-3.22,1.31-.71,2.11-1.65,2.06-3.18.02-.02.07-.04.07-.06,0-.05-.03-.11-.05-.16,0-.34.01-.69.02-1.03,0-.15,0-.29,0-.44,0-1.9.02-3.81.02-5.71.41.43.81.85,1.34,1.4.16-.03.56-.1.96-.17,0,2.81,0,5.61-.01,8.42-.02.02-.07.05-.07.07.02.06.05.11.08.16,0,3.71,0,7.43,0,11.14-.92.51-1.58-.19-2.32-.49-.01-2.07-.02-4.14-.03-6.21-.01-.15-.03-.3-.04-.46Z"/><path class="v" d="m49.57,97.94c.13-.03.26-.05.39-.08-.13.03-.26.05-.39.08Z"/><path class="r" d="m55.68,87.64c.04.07.04.15,0,.22-.03-.05-.06-.1-.07-.16,0-.01.05-.04.07-.06Z"/><path class="r" d="m55.69,91.59c.04.07.04.15,0,.22-.03-.05-.06-.1-.08-.16,0-.01.05-.04.07-.06Z"/><path class="r" d="m55.69,93.57c.04.07.04.15,0,.22-.03-.05-.06-.1-.07-.16,0-.01.05-.04.07-.06Z"/><path class="r" d="m55.68,94.56c.04.07.04.15,0,.22-.02-.05-.06-.1-.07-.16,0-.01.05-.04.07-.06Z"/><path class="v" d="m42.82,97.91c.09.02.18.03.27.05-.09-.02-.18-.03-.27-.05Z"/><path class="t" d="m74.01,69.33c-.04-.09-.08-.18-.12-.27-.06-.08-.12-.17-.17-.25-.18-1.22-.36-2.45-.53-3.67-.11-.75-.19-1.51-.29-2.26-.06-.08-.12-.17-.18-.25-.45-2.69-.91-5.39-1.36-8.08-.06-.36-.13-.71-.2-1.07-.06-.09-.13-.17-.19-.26.03-.33.06-.66.08-.99.74-.48,1.37-.77,1.71.45.09.33.62.55.95.82.29,1.84.58,3.67.86,5.51.37,2.53.73,5.05,1.09,7.58-.15.32-.38.63-.44.96-.09.51.03,1.06-.09,1.55-.18.77-.6.92-1.13.22Z"/><path class="l" d="m20.58,15.57c.07-.07.14-.06.2.02,0,0-.11.05-.11.05l-.1-.06Z"/><path class="l" d="m18.83,15.52c.07-.07.14-.07.21,0-.07,0-.14,0-.21,0Z"/><path class="r" d="m74.01,69.33c.53.7.94.55,1.13-.22.12-.5,0-1.04.09-1.55.06-.34.29-.64.44-.96.35,1.88.7,3.76,1.04,5.64.55,3.13,1.09,6.26,1.64,9.39.22,1.27.37,2.57.73,3.8.45,1.53,1.75,1.91,3.21,1.95,1.41.03,2.02-.79,2.42-2,.25-.77.68-1.48,1.04-2.22.34.28.68.57.98.81.45-.09.9-.19,1.36-.29-.22.48-.43.95-.65,1.43-.06.09-.12.18-.18.27-.28.8-.56,1.59-.84,2.39-.18.35-.37.7-.55,1.05-.06.08-.12.17-.18.25-.07.09-.13.18-.2.26-.02.24-.03.49-.05.73-.33.11-.66.21-.99.32-2.1.07-4.19.15-6.29.17-.31,0-.79-.24-.9-.49-1.89-4.24-3.72-8.51-5.61-12.76-2.1-4.72-4.25-9.42-6.37-14.14-2.1-4.68-4.18-9.37-6.28-14.05-.17-.37-.36-.73-.55-1.09-.06-.17-.12-.34-.18-.51-.03-.08-.05-.16-.08-.24-.06-.1-.12-.21-.18-.31l-.51-.93c-.42-1.07-.84-2.14-1.26-3.21l-.45-.68c-.03.38-.07.77-.1,1.15-.01.18-.03.36-.04.54-.02.02-.06.04-.06.06,0,.05.03.1.05.15.04.58.08,1.17.12,1.75-.03,2.89-.05,5.77-.08,8.66-.4.07-.8.14-.96.17-.53-.55-.93-.97-1.34-1.4-.02-2.66-.07-5.32-.07-7.98,0-2.87.04-5.73.06-8.6.4.04.81.09,1.27.14.23-.95-1.23-1.96.06-2.85.17.19.33.38.5.57.19.41.37.83.56,1.24.79,1.56,1.75,3.06,2.31,4.69.36,1.05.75,2.03,1.28,3.02.63,1.2.96,2.55,1.42,3.84.13.18.25.35.38.53.74,1.67,1.5,3.34,2.23,5.01.48,1.11.93,2.24,1.4,3.37.07.08.13.17.2.25,0,0,0,0,0,0,.08.11.16.22.24.32,1.61,3.6,3.21,7.21,4.82,10.81.06.1.11.21.17.31.86,1.95,1.72,3.91,2.58,5.86.13.29.26.57.4.86.18.37.37.75.55,1.12-.06.8.34,1.17,1.2,1.2v-1.45l-.91-6.17Z"/><path class="r" d="m44.05,47.3c.6-3.34,1.17-6.69,1.79-10.02.43-2.28.92-4.54,1.39-6.81.74.09,1.48.17,2.22.26-.61,3.13-1.2,6.27-1.82,9.4-.43,2.15-.89,4.29-1.33,6.43-.75.25-1.5.49-2.24.74Z"/><path class="v" d="m62.89,37.35c-.03.07-.05.17-.09.19-.05.02-.13-.05-.2-.08.03-.07.04-.18.09-.19.05-.02.13.05.2.08Z"/><path class="l" d="m217.79,64.87c.04-.19.09-.37.13-.56.01.18.03.37.04.56,0,0-.09,0-.09,0h-.09Z"/><path class="s" d="m110.87,7.73c-.25,3.54-.51,7.09-.76,10.63-.36.21-.71.41-1,.58-.35-.39-.65-.73-.95-1.08v-8.7c-.44.51-.82.82-1.02,1.22-.87,1.74-1.69,3.5-2.53,5.25q-1.8-.14-1.22-2.51c.57-1.47,1.15-2.94,1.72-4.41.13-.24.25-.48.38-.71.56-1.15,1.12-2.3,1.68-3.45.71.65,1.5,1.24,2.1,1.98.47.59.71,1.37,1.11,2.2.2-.4.34-.7.49-1Z"/><path class="s" d="m123.17,39.39c.04,2.14.09,4.29.13,6.43-.28.37-.68.7-.83,1.12-.24.68-.46,1.25-1.34,1.11,0-6.68,0-13.36.01-20.04.38.76.72,1.54,1.15,2.27.17.29.53.47.8.69.03,1.9.06,3.8.1,5.69l.03,1.49c-.05.08-.04.15.01.23-.02.33-.05.67-.07,1Z"/><path class="s" d="m111.48,23.33c1.51-3.68,3.02-7.37,4.53-11.05.08-.19.11-.39.17-.59.64.99,1.49.16,2.23.26-.02.08-.01.16.03.23-.03.23-.05.46-.08.69-.06.1-.11.19-.17.29-.02.09-.05.17-.07.26-.42.99-.84,1.97-1.26,2.96-.09.3-.17.61-.26.91-.65,1.6-1.29,3.19-1.94,4.79-.06.04-.08.09-.05.16-.05.11-.11.22-.16.33-.11.3-.22.59-.33.89-.17.2-.33.4-.5.61-.71-.24-1.42-.48-2.13-.72Z"/><path class="s" d="m121.13,26.78c-.06-.04-.12-.08-.18-.12-.02-5.32-.04-10.64-.06-15.96.08.39.23.77.23,1.16.01,4.97,0,9.95,0,14.92Z"/><path class="o" d="m204.02,74.27c-.03-1.9-.06-3.8-.1-5.7.04-.08.03-.16,0-.23,0-5.99,0-11.97.01-17.96,0-.78.03-1.56.05-2.33.26-.21.52-.43.87-.73.44.57.89,1.14,1.33,1.72.01,2.3.04,4.59.04,6.89,0,6.69-.02,13.38-.04,20.07-.23-.19-.66-.38-.65-.57.03-1.12-.64-1.24-1.51-1.16Z"/><path class="u" d="m93.42,49.52c2.83-3.22,5.66-6.44,8.48-9.66.02.16-.02.37.06.48.91,1.07,1.82,2.15,2.78,3.18.19.2.58.22.89.32-.08.24-.17.49-.25.73-.69,1.63-1.37,3.28-2.09,4.9-.45,1-1.02,1.95-1.46,2.95-1.47,3.32-2.92,6.65-4.37,9.98-.04.15-.09.31-.13.46-.66,1.49-1.31,2.99-1.97,4.48-.87.07-1.77.45-2.56-.25,2.32-5.33,4.65-10.66,6.96-15.99.73-1.68,1.44-3.37,2.15-5.05.09-.04.12-.1.09-.19.04-.34.08-.69.12-1.03-.11-.22-.22-.44-.32-.67-.24.21-.48.42-.72.63-1.45,1.62-2.91,3.24-4.36,4.86-.77.86-1.52,1.74-2.28,2.6-.34-.91-.67-1.82-1.01-2.74Z"/><path class="l" d="m217.93,63.68c-.03-.05-.06-.1-.07-.16,0-.02.03-.05.05-.07.03.07.04.15.02.23Z"/><path class="h" d="m123.41,99.74c-.25,1.09-1.11,1.24-2.03,1.28-4.49-.02-8.97-.03-13.46-.05-.09-.08-.18-.17-.26-.25-.18-.49-.36-.98-.54-1.47,0-1.48,0-2.97,0-4.45,0-2.64,0-5.28,0-7.92.03-3.96.06-7.91.09-11.87.72.08,1.44.16,2.16.25.04.41.08.83.12,1.24,0,.16.01.32.02.47,0,4.13,0,8.26,0,12.39.02.13.05.25.07.38.24.7.49,1.4.73,2.09.58-.45,1.27-.82,1.72-1.37.63-.78,1.09-1.71,1.62-2.57.68.91,1.61.53,2.48.46-1.34,2.28-2.71,4.54-4.02,6.83-.79,1.38-.71,1.64.56,2.65.14.03.28.06.42.09,2.11-.02,4.21-.05,6.32-.07.07-.01.15-.02.22-.03.25-.11.5-.22.75-.33.68,1.14,1.93.93,2.96,1.25.03.33.05.66.08.99Z"/><path class="v" d="m92.8,67.09c.79.7,1.69.32,2.56.25-1.29,2.88-2.62,5.75-3.86,8.65-.48,1.12-.64,2.37-1.13,3.48-.55,1.24-1.31,2.38-1.97,3.57-.12.21-.21.44-.31.65-.46.1-.91.19-1.36.29-.3-.25-.64-.53-.98-.81,2.35-5.36,4.7-10.72,7.05-16.08Z"/><path class="r" d="m55.69,63.13c-.03-.05-.06-.1-.08-.16,0-.01.04-.05.07-.07.04.07.05.15,0,.23Z"/><path class="l" d="m150.18,68.03c-.05-.04-.06-.09-.03-.15,0,0,.09.06.09.06l-.06.09Z"/><path class="j" d="m462.26,77.19c.12-.11.23-.22.35-.33-.04.12-.07.25-.11.37-.08,0-.16-.01-.24-.05Z"/><path class="e" d="m107.11,46.81c-.06-.79-.11-1.57-.17-2.36-.07-.96-.58-1.01-1.3-.61-.3-.1-.7-.12-.89-.32-.96-1.03-1.87-2.1-2.78-3.18-.09-.1-.05-.32-.06-.48,1.06-1.3,2.15-2.58,3.18-3.91.67-.87,1.24-1.83,1.86-2.74.91.41,1.82.83,2.73,1.24.1.66.21,1.32.31,1.97.24.75.49,1.49.73,2.24.06.16.12.33.19.49.27.9.54,1.81.8,2.71.16.49.33.99.49,1.48.87,2.19,1.77,4.37,2.61,6.57.23.59.31,1.25.45,1.87.05.22.1.43.16.65.04.18.08.37.12.55.2.42.41.83.61,1.25.1.41.2.82.3,1.24.06.09.13.17.19.26.01.08.03.16.07.23.08.33.16.66.23.99.06.09.11.17.17.26.04.07.08.15.12.22.22.58.44,1.17.65,1.75.15.44.31.88.46,1.32.42,1.82,1.02,3.57,2,5.15.13-.02.26-.04.39-.06.05-.32.1-.64.15-.97.05-.17.1-.34.15-.51,0-.58.02-1.16.03-1.73,0-.08,0-.17,0-.25,0-.25,0-.49,0-.74,0-.08,0-.17,0-.25,0-1.24-.01-2.48-.02-3.71,0-.16,0-.32,0-.48,0-.17,0-.34-.01-.5,0-.08,0-.16-.01-.24,0-.25,0-.5-.01-.76.06-.08.06-.15,0-.23,0-.25,0-.5.01-.75.04-2.15.09-4.29.13-6.44.88.14,1.1-.43,1.34-1.11.15-.42.54-.75.83-1.12,0,1.98,0,3.96,0,5.95-.06.08-.12.17-.17.25.08,7.95.16,15.91.24,23.86,0,.45-.02.9-.04,1.35-.29-.1-.59-.2-.88-.3-.68-.23-1.37-.46-2.05-.69-.11-1.02-.05-2.1-.36-3.06-.95-2.97-2.04-5.89-3.05-8.84-1.04-3.04-2.03-6.09-3.09-9.12-.81-2.33-1.7-4.63-2.56-6.94-.06-.11-.11-.22-.17-.33.03-.06.02-.11-.04-.15-.32-.33-.65-.65-.97-.98-.25.37-.53.72-.73,1.12-.08.16,0,.4.02.61-.03.66-.06,1.32-.09,1.98-.72-.16-1.45-.33-2.17-.49-.03-1.07-.05-2.14-.08-3.22Z"/><path class="u" d="m120.4,76.25c.68.23,1.37.46,2.05.69.29.1.59.2.88.3.01,6.19.03,12.38.04,18.57,0,.9.03,1.8.04,2.7-.03.08-.06.17-.08.25-1.03-.32-2.28-.11-2.96-1.25.17-.45.47-.9.48-1.36.12-3.51.21-7.02.25-10.54.01-.95-.2-1.91-.35-3.33-.7.53-1.26.77-1.54,1.19-1.08,1.6-2.06,3.26-3.08,4.89-.87.07-1.8.44-2.48-.46,2.25-3.89,4.5-7.77,6.76-11.66Z"/><path class="f" d="m123.13,52.02c.06-.08.12-.17.17-.25-.06.08-.12.17-.17.25Z"/><path class="j" d="m321.76,78.94c.58,0,1.16,0,1.75,0,.42.03.83.05,1.25.08-.5.32-.97.8-1.51.92-.94.21-1.94.21-2.91.27-.85.05-1.43-.3-1.56-1.19.17-.03.33-.05.5-.08.67,0,1.33,0,2,.01.17,0,.33,0,.5,0Z"/><path class="j" d="m263.16,78.22c0-1.4,0-2.8,0-4.21,1.28.25,1.63.7,1.24,1.9-.27.82.21,2.1-1.24,2.31Z"/><path class="j" d="m259.56,92.41c.78-1.1,1.56-2.2,2.34-3.3.15.2.4.38.44.6.13.66-1.33,2.93-1.99,3.05-.24.04-.53-.22-.8-.34Z"/><path class="j" d="m315.28,57.46c.52-1,1.03-1.99,1.55-2.99.11.05.28.07.32.15.36.84-.92,3.1-1.87,3.31,0-.16,0-.32,0-.48Z"/><path class="j" d="m298.8,78.22c.09.17.17.33.26.5-.56.49-1.12.99-1.68,1.48-.28-.4-.55-.8-.83-1.2.04-.23.08-.45.07-.36.78-.17,1.36-.29,1.94-.42.08,0,.16,0,.24,0Z"/><path class="j" d="m337.23,77.51c1.08-.24,2.16-.48,3.24-.72-.21.31-.36.76-.66.91-.46.23-1.03.21-1.53.38-.62.22-.96.08-1.06-.57Z"/><path class="j" d="m363.74,80.7c-.03-.08-.04-.16-.05-.24,0-.16-.06-.36.01-.49.24-.42.53-.81.8-1.21.22.2.66.48.63.57-.19.47-.48.92-.79,1.33-.08.1-.39.03-.6.04Z"/><path class="j" d="m417.86,82.93c-.26.23-.52.47-.78.7-.45-1.42-.21-1.76,1.77-2.15-.12.39-.21.68-.3.97-.23.16-.46.32-.69.48Z"/><path class="j" d="m304.05,93.02c-.4-.03-.8-.06-1.21-.1-.36-.62-.72-1.24-1.08-1.85l.08.03c.6-.02,1.18-.15,1.27.8.04.4.6.75.93,1.12Z"/><path class="j" d="m349.96,71.26c.5-.22,1-.43,1.5-.65-.43.55-.82,1.13-1.32,1.61-.09.08-.6-.27-.92-.42.25-.18.5-.36.75-.54Z"/><path class="j" d="m331.98,78.44c.17-.09.34-.18.51-.26.5-.05,1-.09,1.5-.14-.03.68-.2,1.2-1.07,1.18-.57-.01-1-.08-.94-.78Z"/><path class="j" d="m319.5,49.24c.44-.79.88-1.58,1.32-2.38.39.52.73.99-.13,1.45-.23.12-.24.61-.45.85-.17.19-.48.25-.73.37,0-.1,0-.19-.01-.29Z"/><path class="j" d="m349.2,77.23c-.09-.24-.17-.48-.26-.73.32-.23.65-.46.97-.69.1.28.36.7.26.83-.23.28-.64.4-.97.59Z"/><path class="j" d="m314.02,60.41c.2-.5.4-1,.6-1.5.14-.08.27-.15.41-.23.47,1.4.34,1.62-1,1.73Z"/><path class="j" d="m305.81,80.7c.07-.48.14-.96.21-1.44l.82-.08c-.01.29.09.67-.06.85-.24.29-.64.45-.97.66Z"/><path class="j" d="m379.65,88.58c.55-.22,1.11-.44,1.66-.67-.13.38-.26.76-.4,1.14-.42-.16-.84-.31-1.26-.47Z"/><path class="j" d="m313.01,62.63c.2-.43.4-.86.6-1.29.2.27.41.54.61.8-.4.16-.81.33-1.21.49Z"/><path class="j" d="m387.65,85.92c.08-.03.16-.03.24.01-.2.39-.39.78-.59,1.17-.31-.17-.61-.33-.92-.5,0-.06.01-.13.02-.19.42-.16.83-.33,1.25-.49Z"/><path class="j" d="m360.98,88.12c.15-.5.3-.99.45-1.49.26.42.53.83.89,1.41-.62.04-.98.06-1.34.08Z"/><path class="j" d="m344.76,90.34c-.08-.49-.16-.99-.24-1.48.31.26.61.52.92.78-.23.23-.45.47-.68.7Z"/><path class="j" d="m275.08,83.38c.66-.17,1.33-.33,1.99-.5-.71,1.02-1.27,1.16-1.99.5Z"/><path class="j" d="m256.38,89.07c-.28.28-.56.56-.84.83-.07-.4-.13-.8-.2-1.2.35.12.7.24,1.05.37Z"/><path class="j" d="m346.75,73.11c.23-.13.46-.26.69-.38-.01.69.27,1.56-.94,1.54.08-.39.16-.77.24-1.16Z"/><path class="j" d="m281.57,81.65c0-.07.02-.13.04-.2.49-.09.98-.19,1.47-.28-.17.33-.28.85-.53.92-.25.08-.65-.28-.98-.44Z"/><path class="j" d="m302.3,76.24c-.24-.22-.62-.42-.67-.68-.04-.21.26-.57.5-.73.1-.06.44.26.67.41-.17.33-.33.66-.5.99Z"/><path class="j" d="m375.91,89.42l1.25-.27c-.16.31-.33.62-.49.93-.25-.22-.51-.44-.76-.66Z"/><path class="j" d="m389.38,85.59c.25-.14.5-.28.75-.41.17,0,.33.01.5.02-.17.31-.33.62-.5.93-.25-.18-.5-.36-.76-.54Z"/><path class="j" d="m284.8,80.61l1.27-.41c-.18.32-.35.64-.53.96-.25-.18-.49-.36-.74-.55Z"/><path class="j" d="m270.02,84.62c.45-.17.89-.33,1.34-.5.17,0,.33,0,.5,0-.3,1.3-1.11.76-1.83.5Z"/><path class="j" d="m310.52,65.36c.26-.24.51-.49.77-.73.19.24.38.48.58.72-.45,0-.9,0-1.35.01Z"/><path class="j" d="m323.99,41.33l.76-1.21c.42.82.35,1.33-.76,1.21Z"/><path class="j" d="m287.58,79.71c.42-.15.83-.3,1.25-.46-.16.3-.31.6-.47.9-.26-.15-.52-.29-.78-.44Z"/><path class="j" d="m307.27,76.69c.07-.15.15-.31.22-.46.24.18.47.35.71.53l-.39.42c-.18-.16-.36-.33-.54-.49Z"/><path class="j" d="m302.26,84.16c.2.4.4.81.6,1.21-.33-.14-.67-.28-1-.42.14-.26.27-.53.41-.79Z"/><path class="j" d="m367.18,93.11c-.17-.03-.33-.07-.5-.1.17-.28.34-.57.51-.85.16.29.33.58.49.86-.17.03-.33.06-.5.09Z"/><path class="j" d="m372.67,90.08c.33-.06.67-.13,1-.19-.16.29-.31.58-.47.87-.18-.23-.36-.45-.54-.68Z"/><path class="j" d="m362.96,83.17l.46-1.03c.24.18.47.36.95.73-.63.13-1.02.22-1.41.3Z"/><path class="j" d="m326.96,37.55c.44-.03.87-.06,1.31-.09-.34,1.39-.84.49-1.31.09Z"/><path class="j" d="m367.39,88.12c.17.42.34.83.51,1.25-1.13-.29-1.22-.51-.51-1.25Z"/><path class="j" d="m309.26,71.99c.09-.23.18-.46.27-.69.14.26.28.52.42.79-.23-.03-.46-.06-.69-.09Z"/><path class="j" d="m309.89,70.26c.06-.32.12-.63.18-.95.15,0,.3,0,.46,0,.49.78.02.93-.64.95Z"/><path class="j" d="m411.09,78.49c.67.49.86.98.02,1.48,0-.49-.01-.99-.02-1.48Z"/><path class="j" d="m301.55,88.37c-.12-.32-.24-.64-.36-.95.27.1.54.19.81.29-.15.22-.3.44-.46.66Z"/><path class="j" d="m305.25,73.77c-.12.26-.24.53-.35.79-.17-.12-.34-.24-.51-.36.29-.14.58-.28.86-.42Z"/><path class="j" d="m315.02,58.68c-.14.08-.27.15-.41.23-.21-.68,0-1.16.66-1.45,0,.16,0,.32,0,.48-.08.25-.17.49-.25.74Z"/><path class="j" d="m303.04,71.27c.25-.16.49-.32.74-.48-.07.27-.15.55-.22.82-.17-.12-.35-.23-.52-.35Z"/><path class="j" d="m303.84,85.8c.15-.3.3-.6.44-.9l.44.54c-.3.12-.59.24-.89.36Z"/><path class="j" d="m437.62,40.4c0-.14-.01-.28-.02-.42.3-.24.61-.47.91-.71.12.7-.11,1.13-.89,1.13Z"/><path class="j" d="m263.17,73.28c-.1-.1-.2-.19-.3-.29.08-.2.16-.4.24-.6.15.11.44.26.43.31-.07.21-.23.39-.36.58Z"/><path class="j" d="m432.67,50.79c.21-.42.42-.85.63-1.27-.21.42-.42.85-.63,1.27Z"/><path class="j" d="m418.84,71.75c-.42,0-.83-.01-1.25-.02.43-.7.84-.71,1.25.02Z"/><path class="j" d="m310.53,69.32c-.15,0-.3,0-.46,0-.1-.1-.2-.2-.29-.3.12-.22.24-.43.36-.65.09,0,.18.02.27.03.04.31.08.62.12.92Z"/><path class="j" d="m318.49,51.2c.03-.15.07-.29.1-.44l.62.47c-.24-.01-.48-.02-.72-.04Z"/><path class="j" d="m299.3,77.44c-.25.02-.49.04-.74.07,0-.09,0-.18,0-.27.14-.15.28-.3.42-.45.11.22.22.44.33.66Z"/><path class="j" d="m348.26,79.21c.06-.25.13-.5.19-.75.05-.02.1-.04.15-.05.17.19.33.37.5.56-.28.08-.56.15-.84.23Z"/><path class="j" d="m392.89,84.43c.25-.07.5-.15.74-.22-.11.22-.21.43-.32.65-.14-.14-.28-.29-.42-.43Z"/><path class="j" d="m300.3,85.15c-.12-.24-.23-.47-.35-.71.27.09.53.19.8.28-.15.14-.3.28-.45.42Z"/><path class="j" d="m367.91,89.39c.34.23.68.46,1.02.69-.75.35-.97-.04-1.02-.69Z"/><path class="j" d="m305.54,77.02c.25,0,.5.01.75.02-.09.2-.18.4-.27.6-.16-.21-.32-.41-.48-.62Z"/><path class="j" d="m302.8,75.99c.16.09.33.17.49.26-.11.15-.21.29-.32.44-.14-.15-.29-.3-.43-.45.09-.08.17-.17.26-.25Z"/><path class="j" d="m395.89,83.2c.24-.02.49-.04.73-.06-.14.23-.28.45-.41.68-.11-.14-.22-.28-.33-.42,0-.06.01-.13.02-.19Z"/><path class="j" d="m423.08,70.85c.25-.1.5-.2.74-.31l-.28.7c-.15-.13-.31-.26-.46-.4Z"/><path class="j" d="m368.97,71.76c.17-.13.33-.26.5-.39.05.06.1.11.16.17-.14.15-.29.31-.43.46-.07-.08-.15-.16-.22-.23Z"/><path class="j" d="m321.23,46.06c.12-.24.25-.49.37-.73.12.16.23.32.35.49-.24.08-.48.16-.72.24Z"/><path class="j" d="m312.04,63.88c.17-.16.34-.33.51-.49.12.08.24.17.36.25-.29.08-.58.16-.88.24Z"/><path class="j" d="m302.8,75.99c-.09.08-.17.17-.26.25h-.25c.17-.33.33-.66.5-.99,0,.09,0,.17,0,.26,0,.16,0,.32,0,.48Z"/><path class="j" d="m257.88,88.8c-.25,0-.5.02-.75.02.14-.14.28-.28.42-.42.11.13.22.27.33.4Z"/><path class="j" d="m418.12,84.41c.04-.17.08-.35.12-.52.16.09.32.18.47.27-.2.08-.4.17-.59.25Z"/><path class="j" d="m421.16,75.26c.12-.18.23-.35.35-.53.07.12.14.24.21.37-.19.05-.37.11-.56.16Z"/><path class="j" d="m418.84,90.58c-.15-.16-.31-.31-.46-.47.15.16.31.31.46.47Z"/><path class="j" d="m287.84,81.44c-.17.15-.35.3-.52.45.17-.23.34-.46.51-.69,0,.08,0,.16.01.24Z"/><path class="j" d="m362.28,81.88c-.1.13-.2.27-.3.4-.03-.24-.06-.47-.09-.71.13.1.26.2.39.3Z"/><path class="j" d="m346.07,76.82c-.12.21-.24.41-.37.62.12-.21.24-.41.37-.62Z"/><path class="j" d="m298.55,77.23c0,.09,0,.18,0,.27,0,.15,0,.31,0,.46-.41-.23-.81-.47-.02-.73Z"/><path class="j" d="m294.35,76.99c0-.08,0-.17.01-.25.21.05.42.1.64.16-.02.07-.04.14-.06.21-.2-.04-.4-.08-.59-.12Z"/><path class="j" d="m317.49,53.18c-.02-.08,0-.14.07-.18.12.08.24.17.36.25-.05.05-.13.15-.15.14-.1-.05-.18-.14-.27-.21Z"/><path class="j" d="m306,92.56c-.15.15-.31.3-.46.45.15-.15.31-.3.46-.45Z"/><path class="j" d="m263.68,69.07c0-.17-.01-.34-.02-.51.12.08.24.17.36.25l-.35.26Z"/><path class="j" d="m435.1,45.83c.08-.17.15-.33.23-.5-.08.17-.15.33-.23.5Z"/><path class="j" d="m322.51,43.83c.05-.09.09-.19.14-.28.08.14.15.27.23.41-.12-.04-.24-.08-.36-.13Z"/><path class="j" d="m293.35,72.02c.09-.01.16.02.21.09-.12.09-.24.18-.36.27.05-.12.1-.24.15-.36Z"/><path class="j" d="m325.49,39.09c.06-.08.12-.16.18-.24.06.14.12.28.18.42-.12-.06-.24-.12-.35-.18Z"/><path class="j" d="m260.62,88.57h-.5c.08-.12.17-.24.25-.36.08.12.17.24.25.36Z"/><path class="j" d="m335.23,77.95c.17-.05.34-.11.51-.16-.17.05-.34.11-.51.16Z"/><path class="j" d="m308.67,87.92c.07.07.13.15.2.22-.09.04-.19.09-.28.13.03-.12.06-.23.09-.35Z"/><path class="j" d="m359.13,85.92c.07.09.14.17.2.26-.14.04-.27.09-.41.13.07-.13.14-.26.21-.39Z"/><path class="j" d="m279.11,84.17c-.17.14-.34.29-.52.43.17-.14.34-.29.52-.43Z"/><path class="j" d="m319.5,49.24c0,.1,0,.19.01.29-.13,0-.26,0-.4,0,.13-.1.26-.19.39-.29Z"/><path class="j" d="m402.63,78.48c.08-.08.16-.16.23-.24-.08.08-.16.16-.23.24Z"/><path class="j" d="m298.8,78.22c-.08,0-.16,0-.24,0,0-.09,0-.17,0-.26.08.09.16.17.23.26Z"/><path class="j" d="m417.59,88.32c-.06-.01-.12-.03-.18-.04.06-.06.11-.12.17-.18,0,.07,0,.15,0,.22Z"/><path class="j" d="m407.58,73.27c.09-.06.18-.12.27-.18-.09.06-.18.12-.27.18Z"/><path class="j" d="m408.39,72.3c.07,0,.14,0,.21.04-.07.06-.13.12-.2.19-.03-.07-.04-.15-.01-.23Z"/><path class="j" d="m435.86,43.83c.07-.07.13-.15.2-.22-.07.07-.13.15-.2.22Z"/><path class="j" d="m269.03,84.17c.04.08.04.15,0,.22-.02-.05-.05-.1-.06-.16,0-.02.04-.04.07-.07Z"/><path class="j" d="m434.61,46.56c.07-.08.13-.15.2-.23-.07.08-.13.15-.2.23Z"/><path class="j" d="m308.32,67.35c.07-.09.14-.17.21-.26-.07.09-.14.17-.21.26Z"/><path class="j" d="m383.96,87.31c.13-.12.26-.25.39-.37-.13.12-.26.25-.39.37Z"/><path class="j" d="m433.36,49.29c.07-.08.13-.16.2-.25-.07.08-.13.16-.2.25Z"/><path class="j" d="m363.49,81.43c.06-.09.12-.18.18-.27-.06.09-.12.18-.18.27Z"/><path class="j" d="m318.6,50.51c.06-.06.12-.13.18-.19-.06.06-.12.13-.18.19Z"/><path class="j" d="m517.73,80.21c-.02-.17-.05-.33-.07-.5l.41.27c-.11.07-.23.15-.34.22Z"/><path class="n" d="m192.03,66.86c-.31.98-.56,2-.95,2.95-.92,2.23-1.88,4.44-2.86,6.64-.73,1.62-1.51,3.21-2.28,4.81-.47.97-.95,1.94-1.42,2.91-.56-.5-1.11-1-1.67-1.5,2.46-5.57,4.91-11.13,7.37-16.7.04,1.43,1.03.94,1.81.87Z"/><path class="n" d="m184.18,85.15c-.12.25-.24.51-.35.76-.17-.17-.33-.33-.5-.5.28-.09.57-.17.85-.26Z"/><path class="v" d="m53.36,58.95c0,.15,0,.29,0,.44,0-.15,0-.29,0-.44Z"/><path class="g" d="m42.77,64.88c.06-.08.12-.16.17-.25-.06.08-.12.16-.17.25Z"/><path class="v" d="m53.35,60.43c.02.05.04.1.05.16,0,.02-.04.04-.07.06-.04-.08-.04-.15.02-.22Z"/><path class="v" d="m53.29,67.11c.01.15.03.3.04.46-.01-.15-.03-.3-.04-.46Z"/><path class="v" d="m56.24,42.85c-.18.16-.37.31-.55.47.03-.38.07-.77.1-1.15.15.23.3.45.45.68Z"/><path class="v" d="m55.66,43.86c.05.07.04.14,0,.21-.02-.05-.04-.1-.05-.15,0-.02.04-.04.06-.06Z"/><path class="f" d="m113.64,24.55c-1.15,2.8-2.3,5.61-3.45,8.41-.03.16-.06.32-.09.48-.15.34-.29.67-.44,1.01-.91-.41-1.82-.83-2.73-1.24.08-.65.19-1.29.24-1.94.25-3.46.48-6.92.73-10.37.07-1.01.17-2.01.26-3.02.3.34.6.68.95,1.08.29-.17.64-.38,1-.58-.07,1.25-.18,2.5-.19,3.74,0,1.11.58,1.52,1.57,1.22.71.24,1.42.48,2.13.72.03.08.05.16.08.24-.02.09-.04.17-.05.26Z"/><path class="u" d="m109.36,50.52c0,8.25,0,16.49,0,24.74-.72-.08-1.44-.16-2.16-.25,0-8.33,0-16.66-.01-24.98.72.16,1.45.33,2.17.49Z"/><path class="u" d="m112.66,97.85c.14.03.28.06.42.09-.14-.03-.28-.06-.42-.09Z"/><path class="u" d="m119.4,97.87c.07-.06.14-.07.22-.03-.07.01-.15.02-.22.03Z"/><text class="k" transform="translate(28.11 92.5) rotate(-90)"><tspan x="0" y="0">wcLD</tspan></text></g></svg>